<?xml version="1.0" encoding="UTF-8"?>
<svg width="752pt" height="752pt" version="1.1" viewBox="0 0 752 752" xmlns="http://www.w3.org/2000/svg">
 <g>
  <path d="m263.76 303.54 32.676-25.102c2.3672-1.8945 3.7891-4.7344 3.7891-7.5781 0-2.8398-1.4219-5.6836-3.7891-7.5781l-32.676-25.102c-4.2617-3.3164-10.418-2.3672-13.734 1.8945s-2.3672 10.418 1.8945 13.734l22.73 17.523-22.73 17.523c-4.2617 3.3164-5.2109 9.4727-1.8945 13.734 1.8945 2.3672 4.7344 3.7891 7.5781 3.7891 2.3672-0.94531 4.7383-1.418 6.1562-2.8398z"/>
  <path d="m375.05 303.54c1.8945 1.4219 3.7891 1.8945 5.6836 1.8945 2.8398 0 5.6836-1.4219 7.5781-3.7891 3.3164-4.2617 2.3672-10.418-1.8945-13.734l-22.73-17.523 22.73-17.523c4.2617-3.3164 5.2109-9.4727 1.8945-13.734-3.3164-4.2617-9.4727-5.2109-13.734-1.8945l-32.676 25.102c-2.3672 1.8945-3.7891 4.7344-3.7891 7.5781 0 2.8398 1.4219 5.6836 3.7891 7.5781z"/>
  <path d="m582.01 368.43c-2.8398-1.8945-5.6836-2.8398-8.9961-3.7891l0.47266-0.47266c8.5234-12.785 4.7344-30.309-8.0508-38.832-3.3164-2.3672-7.1055-3.7891-10.891-4.2617 2.3672-10.891-2.3672-22.73-12.312-29.363-9.9453-6.6289-22.73-6.1562-31.73 0-1.8945-3.3164-4.7344-6.1562-8.0508-8.5234-7.5781-5.2109-16.574-6.1562-24.625-3.3164-15.629-72.93-80.508-127.87-158.65-127.87-89.039-0.94922-161.97 71.98-161.97 161.49 0 89.035 72.93 161.96 161.96 161.96 8.9961 0 17.523-0.94531 26.52-2.3672v1.4219l-30.309 45.465c-3.3164 4.7344-1.8945 10.891 2.8398 14.207l96.609 64.879c4.7344 3.3164 10.891 1.8945 14.207-2.8398l31.73-47.359c25.102-5.6836 48.305-20.836 63.461-43.57 0.47266-0.94531 66.301-98.977 66.301-98.977 8.0547-12.316 4.2656-29.363-8.5234-37.887zm-262.84 87.609c-78.613 0-143.02-63.934-143.02-142.55 0.47266-79.086 64.406-143.02 143.02-143.02 71.984 0 131.66 53.988 141.13 123.13l-54.465 81.926c-0.47266-6.1562-1.4219-11.84-1.8945-17.523-2.3672-15.629-14.68-25.574-30.781-24.625-3.7891 0-8.0508 0.94531-11.84 2.8398-8.9961-8.9961-21.785-14.207-42.148-14.207-44.043 0-53.988 26.52-64.879 58.723-0.94531 2.8398-0.47266 6.1562 1.4219 8.9961 1.8945 2.3672 5.2109 4.2617 8.5234 3.7891 0 0 27.469-1.4219 55.41-1.4219 7.1055 0 14.207 0 21.312 0.47266 0.94531 19.418 2.3672 43.098 3.7891 61.566-8.5312 0.95312-17.055 1.8984-25.578 1.8984zm0-83.824c-15.629 0-31.258 0.47266-41.676 0.94531 8.0508-21.312 16.102-32.203 41.676-32.203 12.312 0 20.363 2.3672 26.52 7.5781-3.3164 4.7344-5.2109 9.9453-5.6836 16.574v7.5781c-6.6289-0.47266-13.73-0.47266-20.836-0.47266zm98.977 206.01-81.93-54.934 21.312-31.73 81.93 54.934zm156.29-182.33-65.828 98.98c-13.734 20.363-35.047 33.152-57.777 36.465l-86.191-57.305c-1.8945-22.258-6.6289-87.141-5.6836-107.98 0.47266-8.5234 8.0508-13.262 15.156-13.734 4.2617 0 9.9453 0.94531 11.367 8.5234 1.4219 9.9453 3.3164 34.57 4.2617 47.359 0.47266 6.1562 7.1055 9.9453 12.312 7.1055 0.47266-0.47266 1.4219-0.94531 1.4219-1.4219l75.773-113.66c2.8398-4.2617 8.5234-5.2109 12.785-1.8945 4.2617 2.8398 5.6836 8.5234 2.8398 12.785l-50.199 74.828c-2.8398 4.2617-2.3672 9.9453 1.4219 13.262 4.2617 3.7891 10.891 2.8398 14.207-1.8945l59.199-88.086c2.8398-4.2617 8.5234-5.2109 12.785-1.8945 4.2617 2.8398 5.6836 8.5234 2.8398 12.785l-59.199 87.141c-2.8398 4.2617-2.3672 9.9453 1.4219 13.262 4.2617 3.7891 10.891 2.8398 14.207-1.8945l50.672-75.301c2.8398-4.2617 8.5234-5.2109 12.785-1.8945 4.2617 2.8398 5.6836 8.5234 2.8398 12.785l-50.668 74.355c-2.3672 3.3164-1.8945 7.5781 0 10.418 0.94531 1.4219 2.8398 2.8398 4.7344 3.7891 4.2617 1.4219 8.9961-0.47266 11.367-4.2617l35.52-53.043c2.3672-3.7891 8.0508-4.2617 12.312-1.4219 4.7344 2.8438 5.6836 8.5273 3.3164 11.84z"/>
  <path d="m520.92 246.24c2.8398 0 6.1562-1.4219 8.0508-4.2617l14.207-19.891c3.3164-4.2617 1.8945-10.418-2.3672-13.734-4.2617-3.3164-10.418-1.8945-13.734 2.3672l-14.207 19.891c-3.3164 4.2617-1.8945 10.418 2.3672 13.734 1.8945 0.94922 3.7891 1.8945 5.6836 1.8945z"/>
  <path d="m485.4 230.14c0.94531 0.47266 1.8945 0.47266 2.3672 0.47266 4.2617 0 8.0508-2.8398 9.4727-7.1055l6.6289-23.68c1.4219-5.2109-1.4219-10.418-6.6289-11.84-5.2109-1.4219-10.418 1.4219-11.84 6.6289l-6.6289 23.68c-1.4219 5.2148 1.8945 10.426 6.6289 11.844z"/>
  <path d="m538.44 267.55c1.8945 2.8398 4.7344 4.2617 8.0508 4.2617 1.8945 0 3.7891-0.47266 5.6836-1.8945l20.363-13.734c4.2617-2.8398 5.6836-8.9961 2.3672-13.262-2.8398-4.2617-8.9961-5.6836-13.262-2.3672l-20.363 13.734c-4.7344 2.8438-5.6836 9-2.8398 13.262z"/>
 </g>
</svg>
